{
	"samplers":[{
		"magFilter":9729,
		"minFilter":9729,
		"wrapS":10497,
		"wrapT":10497
	},
	{
		"magFilter":9729,
		"minFilter":9729,
		"wrapS":10497,
		"wrapT":10497
	}],
	"nodes":[{
		"name":"Cube.1",
		"scale":[1.0,
		1.0,
		1.0],
		"translation":[0.0,
		23.682432174682618,
		7.888609052210118e-31],
		"rotation":[0.0,
		0.0,
		0.0,
		-1.0],
		"mesh":0
	}],
	"asset":{
		"version":"2.0",
		"generator":"Created using the official Cinema 4D glTF Exporter 1.000x284978"
	},
	"materials":[{
		"pbrMetallicRoughness":{
			"baseColorFactor":[1.0,
			1.0,
			1.0,
			1.0],
			"metallicFactor":0.0,
			"roughnessFactor":0.5
		},
		"normalTexture":{
			"index":0,
			"scale":1.0
		},
		"emissiveTexture":{
			"index":1
		},
		"emissiveFactor":[1.0,
		1.0,
		1.0],
		"alphaMode":"OPAQUE",
		"doubleSided":false,
		"name":"Cube"
	}],
	"scenes":[{
		"nodes":[0]
	}],
	"images":[{
		"uri":"data:image/jpeg;base64,"
	},
	{
		"uri":"data:image/jpeg;base64,"
	}],
	"meshes":[{
		"name":"Cube.1",
		"primitives":[{
			"attributes":{
				"POSITION":1,
				"TEXCOORD_0":2
			},
			"indices":0,
			"material":0
		}]
	}],
	"buffers":[{
		"uri":"data:application/octet-stream;base64,",
		"byteLength":51376
	},
	{
		"uri":"data:application/octet-stream;base64,",
		"byteLength":4356
	}],
	"accessors":[{
		"bufferView":0,
		"type":"SCALAR",
		"componentType":5123,
		"count":6948,
		"byteOffset":0,
		"min":[0],
		"max":[1873]
	},
	{
		"bufferView":1,
		"type":"VEC3",
		"componentType":5126,
		"count":1874,
		"byteOffset":0,
		"min":[-16.41602897644043,
		-41.12274169921875,
		-17.82003402709961],
		"max":[16.41602897644043,
		19.48097801208496,
		17.82003402709961]
	},
	{
		"bufferView":1,
		"type":"VEC2",
		"componentType":5126,
		"count":1874,
		"byteOffset":12,
		"min":[0.0006848927587270737,
		0.0006848927587270737],
		"max":[0.9980506896972656,
		0.9958803653717041]
	},
	{
		"bufferView":2,
		"type":"SCALAR",
		"componentType":5126,
		"count":121,
		"byteOffset":0,
		"min":[0.0],
		"max":[4.0]
	},
	{
		"bufferView":2,
		"type":"VEC3",
		"componentType":5126,
		"count":121,
		"byteOffset":484,
		"min":[0.0,
		21.682432174682618,
		7.888609052210118e-31],
		"max":[0.0,
		23.682432174682618,
		7.888609052210118e-31]
	},
	{
		"bufferView":3,
		"type":"SCALAR",
		"componentType":5126,
		"count":121,
		"byteOffset":0,
		"min":[0.0],
		"max":[4.0]
	},
	{
		"bufferView":3,
		"type":"VEC4",
		"componentType":5126,
		"count":121,
		"byteOffset":484,
		"min":[0.0,
		-0.04361938685178757,
		0.0,
		-1.0],
		"max":[0.0,
		0.0,
		0.0,
		1.0]
	}],
	"bufferViews":[{
		"buffer":0,
		"byteOffset":0,
		"byteLength":13896,
		"target":34963
	},
	{
		"buffer":0,
		"byteOffset":13896,
		"byteLength":37480,
		"target":34962,
		"byteStride":20
	},
	{
		"buffer":1,
		"byteOffset":0,
		"byteLength":1936
	},
	{
		"buffer":1,
		"byteOffset":1936,
		"byteLength":2420
	}],
	"textures":[{
		"sampler":0,
		"source":0
	},
	{
		"sampler":1,
		"source":1
	}],
	"animations":[{
		"samplers":[{
			"input":3,
			"interpolation":"LINEAR",
			"output":4
		},
		{
			"input":5,
			"interpolation":"LINEAR",
			"output":6
		}],
		"channels":[{
			"sampler":0,
			"target":{
				"node":0,
				"path":"translation"
			}
		},
		{
			"sampler":1,
			"target":{
				"node":0,
				"path":"rotation"
			}
		}]
	}]
}