{
	"nodes":[{
		"name":"Columna dorica",
		"children":[1,
		2,
		3]
	},
	{
		"name":"Cube",
		"translation":[0.0,
		40.997947692871097,
		0.0],
		"rotation":[0.0,
		0.0,
		0.0,
		-1.0],
		"scale":[1.0,
		1.0,
		1.0],
		"mesh":0
	},
	{
		"name":"Sphere",
		"translation":[0.0,
		39.26961898803711,
		1.5777218104420237e-30],
		"rotation":[1.0,
		-6.123234262925839e-17,
		6.123234262925839e-17,
		6.123234262925839e-17],
		"scale":[1.0,
		1.0,
		1.0],
		"mesh":1
	},
	{
		"name":"Boole",
		"translation":[0.0,
		-251.49783325195313,
		0.0],
		"rotation":[0.0,
		0.0,
		0.0,
		-1.0],
		"scale":[1.0,
		1.0,
		1.0],
		"children":[4,
		5]
	},
	{
		"name":"Cylinder",
		"translation":[0.0,
		259.91033935546877,
		0.0],
		"rotation":[0.0,
		0.0,
		0.0,
		-1.0],
		"scale":[1.0,
		1.0023809671401978,
		1.0],
		"mesh":2
	},
	{
		"name":"Cloner",
		"translation":[0.0,
		255.8191680908203,
		0.0],
		"rotation":[0.0,
		0.0,
		0.0,
		-1.0],
		"scale":[1.0,
		1.0,
		1.0],
		"children":[6,
		7,
		8,
		9,
		10,
		11,
		12,
		13]
	},
	{
		"name":"Capsule 0",
		"translation":[0.0,
		0.0,
		-8.5],
		"rotation":[0.0,
		0.0,
		0.0,
		-1.0],
		"scale":[1.0,
		1.0,
		1.0],
		"mesh":3
	},
	{
		"name":"Capsule 1",
		"translation":[6.010407447814941,
		0.0,
		-6.010407447814941],
		"rotation":[0.0,
		-0.3826834261417389,
		0.0,
		0.9238795042037964],
		"scale":[1.0,
		1.0,
		1.0],
		"mesh":4
	},
	{
		"name":"Capsule 2",
		"translation":[8.5,
		0.0,
		-5.204749057312514e-16],
		"rotation":[0.0,
		-0.7071067690849304,
		0.0,
		0.7071067690849304],
		"scale":[1.0,
		1.0,
		1.0],
		"mesh":5
	},
	{
		"name":"Capsule 3",
		"translation":[6.010407447814941,
		0.0,
		6.010407447814941],
		"rotation":[0.0,
		-0.9238795042037964,
		0.0,
		0.3826834261417389],
		"scale":[1.0,
		1.0,
		1.0],
		"mesh":6
	},
	{
		"name":"Capsule 4",
		"translation":[1.0409498114625029e-15,
		0.0,
		8.5],
		"rotation":[0.0,
		-1.0,
		0.0,
		-6.123234262925839e-17],
		"scale":[1.0,
		1.0,
		1.0],
		"mesh":7
	},
	{
		"name":"Capsule 5",
		"translation":[-6.010407447814941,
		0.0,
		6.010407447814941],
		"rotation":[0.0,
		-0.9238795042037964,
		0.0,
		-0.3826834261417389],
		"scale":[1.0,
		1.0,
		1.0],
		"mesh":8
	},
	{
		"name":"Capsule 6",
		"translation":[-8.5,
		0.0,
		1.5614246642541952e-15],
		"rotation":[0.0,
		-0.7071067690849304,
		0.0,
		-0.7071067690849304],
		"scale":[1.0,
		1.0,
		1.0],
		"mesh":9
	},
	{
		"name":"Capsule 7",
		"translation":[-6.010407447814941,
		0.0,
		-6.010407447814941],
		"rotation":[0.0,
		-0.3826834261417389,
		0.0,
		-0.9238795042037964],
		"scale":[1.0,
		1.0,
		1.0],
		"mesh":10
	}],
	"asset":{
		"version":"2.0",
		"generator":"Created using the official Cinema 4D glTF Exporter 1.000x284978"
	},
	"scenes":[{
		"nodes":[0]
	}],
	"meshes":[{
		"name":"Cube",
		"primitives":[{
			"attributes":{
				"POSITION":1,
				"TEXCOORD_0":2
			},
			"indices":0,
			"material":0
		}]
	},
	{
		"name":"Sphere",
		"primitives":[{
			"attributes":{
				"POSITION":4,
				"TEXCOORD_0":5
			},
			"indices":3,
			"material":0
		}]
	},
	{
		"name":"Cylinder",
		"primitives":[{
			"attributes":{
				"POSITION":7,
				"TEXCOORD_0":8
			},
			"indices":6,
			"material":0
		}]
	},
	{
		"name":"Capsule 0",
		"primitives":[{
			"attributes":{
				"POSITION":10,
				"TEXCOORD_0":11
			},
			"indices":9,
			"material":0
		}]
	},
	{
		"name":"Capsule 1",
		"primitives":[{
			"attributes":{
				"POSITION":13,
				"TEXCOORD_0":14
			},
			"indices":12,
			"material":0
		}]
	},
	{
		"name":"Capsule 2",
		"primitives":[{
			"attributes":{
				"POSITION":16,
				"TEXCOORD_0":17
			},
			"indices":15,
			"material":0
		}]
	},
	{
		"name":"Capsule 3",
		"primitives":[{
			"attributes":{
				"POSITION":19,
				"TEXCOORD_0":20
			},
			"indices":18,
			"material":0
		}]
	},
	{
		"name":"Capsule 4",
		"primitives":[{
			"attributes":{
				"POSITION":22,
				"TEXCOORD_0":23
			},
			"indices":21,
			"material":0
		}]
	},
	{
		"name":"Capsule 5",
		"primitives":[{
			"attributes":{
				"POSITION":25,
				"TEXCOORD_0":26
			},
			"indices":24,
			"material":0
		}]
	},
	{
		"name":"Capsule 6",
		"primitives":[{
			"attributes":{
				"POSITION":28,
				"TEXCOORD_0":29
			},
			"indices":27,
			"material":0
		}]
	},
	{
		"name":"Capsule 7",
		"primitives":[{
			"attributes":{
				"POSITION":31,
				"TEXCOORD_0":32
			},
			"indices":30,
			"material":0
		}]
	}],
	"accessors":[{
		"bufferView":0,
		"type":"SCALAR",
		"componentType":5123,
		"count":2340,
		"byteOffset":0,
		"min":[0],
		"max":[501]
	},
	{
		"bufferView":1,
		"type":"VEC3",
		"componentType":5126,
		"count":502,
		"byteOffset":0,
		"min":[-16.41602897644043,
		-2.1654629707336427,
		-17.82003402709961],
		"max":[16.41602897644043,
		2.1654629707336427,
		17.82003402709961]
	},
	{
		"bufferView":1,
		"type":"VEC2",
		"componentType":5126,
		"count":502,
		"byteOffset":12,
		"min":[0.0,
		0.0],
		"max":[1.0,
		1.0]
	},
	{
		"bufferView":2,
		"type":"SCALAR",
		"componentType":5123,
		"count":336,
		"byteOffset":0,
		"min":[0],
		"max":[83]
	},
	{
		"bufferView":3,
		"type":"VEC3",
		"componentType":5126,
		"count":84,
		"byteOffset":0,
		"min":[-9.503849029541016,
		0.0,
		-9.503849029541016],
		"max":[9.503849029541016,
		9.503849029541016,
		9.503849029541016]
	},
	{
		"bufferView":3,
		"type":"VEC2",
		"componentType":5126,
		"count":84,
		"byteOffset":12,
		"min":[0.0,
		0.0],
		"max":[1.0,
		0.5]
	},
	{
		"bufferView":4,
		"type":"SCALAR",
		"componentType":5123,
		"count":1296,
		"byteOffset":0,
		"min":[0],
		"max":[411]
	},
	{
		"bufferView":5,
		"type":"VEC3",
		"componentType":5126,
		"count":412,
		"byteOffset":0,
		"min":[-8.603766441345215,
		-25.791406631469728,
		-8.603766441345215],
		"max":[8.603766441345215,
		25.791406631469728,
		8.603766441345215]
	},
	{
		"bufferView":5,
		"type":"VEC2",
		"componentType":5126,
		"count":412,
		"byteOffset":12,
		"min":[0.0,
		0.0],
		"max":[1.0,
		1.0]
	},
	{
		"bufferView":6,
		"type":"SCALAR",
		"componentType":5123,
		"count":372,
		"byteOffset":0,
		"min":[0],
		"max":[87]
	},
	{
		"bufferView":7,
		"type":"VEC3",
		"componentType":5126,
		"count":88,
		"byteOffset":0,
		"min":[-0.794011116027832,
		-21.76163673400879,
		-0.10376661270856857],
		"max":[0.794011116027832,
		24.564468383789064,
		2.0696895122528078]
	},
	{
		"bufferView":7,
		"type":"VEC2",
		"componentType":5126,
		"count":88,
		"byteOffset":12,
		"min":[0.0,
		0.004172945395112038],
		"max":[1.0,
		0.9343557357788086]
	},
	{
		"bufferView":8,
		"type":"SCALAR",
		"componentType":5123,
		"count":372,
		"byteOffset":0,
		"min":[0],
		"max":[87]
	},
	{
		"bufferView":9,
		"type":"VEC3",
		"componentType":5126,
		"count":88,
		"byteOffset":0,
		"min":[-0.794011116027832,
		-21.76163673400879,
		-0.10376661270856857],
		"max":[0.794011116027832,
		24.564468383789064,
		2.0696895122528078]
	},
	{
		"bufferView":9,
		"type":"VEC2",
		"componentType":5126,
		"count":88,
		"byteOffset":12,
		"min":[0.0,
		0.004172945395112038],
		"max":[1.0,
		0.9343557357788086]
	},
	{
		"bufferView":10,
		"type":"SCALAR",
		"componentType":5123,
		"count":372,
		"byteOffset":0,
		"min":[0],
		"max":[87]
	},
	{
		"bufferView":11,
		"type":"VEC3",
		"componentType":5126,
		"count":88,
		"byteOffset":0,
		"min":[-0.794011116027832,
		-21.76163673400879,
		-0.10376661270856857],
		"max":[0.794011116027832,
		24.564468383789064,
		2.0696895122528078]
	},
	{
		"bufferView":11,
		"type":"VEC2",
		"componentType":5126,
		"count":88,
		"byteOffset":12,
		"min":[0.0,
		0.004172945395112038],
		"max":[1.0,
		0.9343557357788086]
	},
	{
		"bufferView":12,
		"type":"SCALAR",
		"componentType":5123,
		"count":372,
		"byteOffset":0,
		"min":[0],
		"max":[87]
	},
	{
		"bufferView":13,
		"type":"VEC3",
		"componentType":5126,
		"count":88,
		"byteOffset":0,
		"min":[-0.794011116027832,
		-21.76163673400879,
		-0.10376661270856857],
		"max":[0.794011116027832,
		24.564468383789064,
		2.0696895122528078]
	},
	{
		"bufferView":13,
		"type":"VEC2",
		"componentType":5126,
		"count":88,
		"byteOffset":12,
		"min":[0.0,
		0.004172945395112038],
		"max":[1.0,
		0.9343557357788086]
	},
	{
		"bufferView":14,
		"type":"SCALAR",
		"componentType":5123,
		"count":372,
		"byteOffset":0,
		"min":[0],
		"max":[87]
	},
	{
		"bufferView":15,
		"type":"VEC3",
		"componentType":5126,
		"count":88,
		"byteOffset":0,
		"min":[-0.794011116027832,
		-21.76163673400879,
		-0.10376661270856857],
		"max":[0.794011116027832,
		24.564468383789064,
		2.0696895122528078]
	},
	{
		"bufferView":15,
		"type":"VEC2",
		"componentType":5126,
		"count":88,
		"byteOffset":12,
		"min":[0.0,
		0.004172945395112038],
		"max":[1.0,
		0.9343557357788086]
	},
	{
		"bufferView":16,
		"type":"SCALAR",
		"componentType":5123,
		"count":372,
		"byteOffset":0,
		"min":[0],
		"max":[87]
	},
	{
		"bufferView":17,
		"type":"VEC3",
		"componentType":5126,
		"count":88,
		"byteOffset":0,
		"min":[-0.794011116027832,
		-21.76163673400879,
		-0.10376661270856857],
		"max":[0.794011116027832,
		24.564468383789064,
		2.0696895122528078]
	},
	{
		"bufferView":17,
		"type":"VEC2",
		"componentType":5126,
		"count":88,
		"byteOffset":12,
		"min":[0.0,
		0.004172945395112038],
		"max":[1.0,
		0.9343557357788086]
	},
	{
		"bufferView":18,
		"type":"SCALAR",
		"componentType":5123,
		"count":372,
		"byteOffset":0,
		"min":[0],
		"max":[87]
	},
	{
		"bufferView":19,
		"type":"VEC3",
		"componentType":5126,
		"count":88,
		"byteOffset":0,
		"min":[-0.794011116027832,
		-21.76163673400879,
		-0.10376661270856857],
		"max":[0.794011116027832,
		24.564468383789064,
		2.0696895122528078]
	},
	{
		"bufferView":19,
		"type":"VEC2",
		"componentType":5126,
		"count":88,
		"byteOffset":12,
		"min":[3.836565424236286e-18,
		0.004172945395112038],
		"max":[1.0,
		0.9343557357788086]
	},
	{
		"bufferView":20,
		"type":"SCALAR",
		"componentType":5123,
		"count":372,
		"byteOffset":0,
		"min":[0],
		"max":[87]
	},
	{
		"bufferView":21,
		"type":"VEC3",
		"componentType":5126,
		"count":88,
		"byteOffset":0,
		"min":[-0.794011116027832,
		-21.76163673400879,
		-0.10376661270856857],
		"max":[0.794011116027832,
		24.564468383789064,
		2.0696895122528078]
	},
	{
		"bufferView":21,
		"type":"VEC2",
		"componentType":5126,
		"count":88,
		"byteOffset":12,
		"min":[0.0,
		0.004172945395112038],
		"max":[1.0,
		0.9343557357788086]
	}],
	"bufferViews":[{
		"buffer":0,
		"byteOffset":0,
		"byteLength":4680,
		"target":34963
	},
	{
		"buffer":0,
		"byteOffset":4680,
		"byteLength":10040,
		"target":34962,
		"byteStride":20
	},
	{
		"buffer":1,
		"byteOffset":0,
		"byteLength":672,
		"target":34963
	},
	{
		"buffer":1,
		"byteOffset":672,
		"byteLength":1680,
		"target":34962,
		"byteStride":20
	},
	{
		"buffer":2,
		"byteOffset":0,
		"byteLength":2592,
		"target":34963
	},
	{
		"buffer":2,
		"byteOffset":2592,
		"byteLength":8240,
		"target":34962,
		"byteStride":20
	},
	{
		"buffer":3,
		"byteOffset":0,
		"byteLength":744,
		"target":34963
	},
	{
		"buffer":3,
		"byteOffset":744,
		"byteLength":1760,
		"target":34962,
		"byteStride":20
	},
	{
		"buffer":4,
		"byteOffset":0,
		"byteLength":744,
		"target":34963
	},
	{
		"buffer":4,
		"byteOffset":744,
		"byteLength":1760,
		"target":34962,
		"byteStride":20
	},
	{
		"buffer":5,
		"byteOffset":0,
		"byteLength":744,
		"target":34963
	},
	{
		"buffer":5,
		"byteOffset":744,
		"byteLength":1760,
		"target":34962,
		"byteStride":20
	},
	{
		"buffer":6,
		"byteOffset":0,
		"byteLength":744,
		"target":34963
	},
	{
		"buffer":6,
		"byteOffset":744,
		"byteLength":1760,
		"target":34962,
		"byteStride":20
	},
	{
		"buffer":7,
		"byteOffset":0,
		"byteLength":744,
		"target":34963
	},
	{
		"buffer":7,
		"byteOffset":744,
		"byteLength":1760,
		"target":34962,
		"byteStride":20
	},
	{
		"buffer":8,
		"byteOffset":0,
		"byteLength":744,
		"target":34963
	},
	{
		"buffer":8,
		"byteOffset":744,
		"byteLength":1760,
		"target":34962,
		"byteStride":20
	},
	{
		"buffer":9,
		"byteOffset":0,
		"byteLength":744,
		"target":34963
	},
	{
		"buffer":9,
		"byteOffset":744,
		"byteLength":1760,
		"target":34962,
		"byteStride":20
	},
	{
		"buffer":10,
		"byteOffset":0,
		"byteLength":744,
		"target":34963
	},
	{
		"buffer":10,
		"byteOffset":744,
		"byteLength":1760,
		"target":34962,
		"byteStride":20
	}],
	"buffers":[{
		"uri":"data:application/octet-stream;base64,",
		"byteLength":14720
	},
	{
		"uri":"data:application/octet-stream;base64,",
		"byteLength":2352
	},
	{
		"uri":"data:application/octet-stream;base64,",
		"byteLength":10832
	},
	{
		"uri":"data:application/octet-stream;base64,",
		"byteLength":2504
	},
	{
		"uri":"data:application/octet-stream;base64,",
		"byteLength":2504
	},
	{
		"uri":"data:application/octet-stream;base64,",
		"byteLength":2504
	},
	{
		"uri":"data:application/octet-stream;base64,",
		"byteLength":2504
	},
	{
		"uri":"data:application/octet-stream;base64,",
		"byteLength":2504
	},
	{
		"uri":"data:application/octet-stream;base64,",
		"byteLength":2504
	},
	{
		"uri":"data:application/octet-stream;base64,",
		"byteLength":2504
	},
	{
		"uri":"data:application/octet-stream;base64,",
		"byteLength":2504
	}],
	"materials":[{
		"pbrMetallicRoughness":{
			"baseColorFactor":[0.68,
			0.68,
			0.68,
			1.0],
			"metallicFactor":0.46,
			"roughnessFactor":0.0
		},
		"emissiveFactor":[0.0,
		0.0,
		0.0],
		"alphaMode":"OPAQUE",
		"doubleSided":false,
		"name":"Mat"
	}]
}