{
	"nodes":[{
		"name":"Atom Array",
		"scale":[1.0,
		1.0,
		1.0],
		"translation":[0.0,
		0.0,
		0.0],
		"rotation":[0.0,
		-0.7071067690849304,
		0.0,
		-0.7071067690849304],
		"children":[1]
	},
	{
		"name":"Plane",
		"mesh":0
	}],
	"asset":{
		"version":"2.0",
		"generator":"Created using the official Cinema 4D glTF Exporter 1.000x284978"
	},
	"scenes":[{
		"nodes":[0]
	}],
	"meshes":[{
		"name":"Plane",
		"primitives":[{
			"attributes":{
				"POSITION":1,
				"TEXCOORD_0":2
			},
			"indices":0,
			"material":0
		}]
	}],
	"accessors":[{
		"bufferView":0,
		"type":"SCALAR",
		"componentType":5123,
		"count":25392,
		"min":[0],
		"byteOffset":0,
		"max":[8311]
	},
	{
		"bufferView":1,
		"type":"VEC3",
		"componentType":5126,
		"count":8312,
		"min":[-675.5685424804688,
		-1.2437481880187989,
		-357.1903381347656],
		"byteOffset":0,
		"max":[675.568603515625,
		1.2437481880187989,
		357.1903381347656]
	},
	{
		"bufferView":1,
		"type":"VEC2",
		"componentType":5126,
		"count":8312,
		"min":[0.0,
		0.0],
		"byteOffset":12,
		"max":[1.0,
		1.0]
	}],
	"buffers":[{
		"uri":"data:application/octet-stream;base64,",
		"byteLength":217024
	}],
	"bufferViews":[{
		"buffer":0,
		"byteOffset":0,
		"byteLength":50784,
		"target":34963
	},
	{
		"buffer":0,
		"byteOffset":50784,
		"byteLength":166240,
		"target":34962,
		"byteStride":20
	}],
	"materials":[{
		"alphaMode":"OPAQUE",
		"pbrMetallicRoughness":{
			"baseColorFactor":[0.8,
			0.8,
			0.8,
			1.0],
			"metallicFactor":1.0,
			"roughnessFactor":1.0
		},
		"emissiveFactor":[1.0,
		0.0,
		0.8833333333333346],
		"doubleSided":false,
		"name":"Mat"
	}]
}