{
	"nodes":[{
		"name":"Extrude",
		"scale":[1.0,
		1.0,
		1.0],
		"translation":[0.0,
		14.827492713928223,
		0.0],
		"rotation":[0.0,
		0.043118055909872058,
		0.0,
		-0.9990699887275696],
		"mesh":0
	}],
	"asset":{
		"version":"2.0",
		"generator":"Created using the official Cinema 4D glTF Exporter 1.000x284978"
	},
	"scenes":[{
		"nodes":[0]
	}],
	"meshes":[{
		"name":"Extrude",
		"primitives":[{
			"attributes":{
				"POSITION":1,
				"NORMAL":2
			},
			"indices":0,
			"material":0
		}]
	}],
	"accessors":[{
		"bufferView":0,
		"type":"SCALAR",
		"componentType":5123,
		"byteOffset":0,
		"count":7152,
		"min":[0],
		"max":[2469]
	},
	{
		"bufferView":1,
		"type":"VEC3",
		"componentType":5126,
		"byteOffset":0,
		"count":2470,
		"min":[-72.54238891601563,
		-42.76911926269531,
		-5.0],
		"max":[140.3154296875,
		8.833037376403809,
		0.0]
	},
	{
		"bufferView":1,
		"type":"VEC3",
		"componentType":5126,
		"byteOffset":12,
		"count":2470,
		"min":[-1.0,
		-1.0,
		-1.0],
		"max":[1.0,
		1.0,
		1.0]
	},
	{
		"bufferView":2,
		"type":"SCALAR",
		"componentType":5126,
		"byteOffset":0,
		"count":91,
		"min":[0.0],
		"max":[3.0]
	},
	{
		"bufferView":2,
		"type":"VEC3",
		"componentType":5126,
		"byteOffset":364,
		"count":91,
		"min":[0.0,
		-15.0,
		0.0],
		"max":[0.0,
		15.0,
		0.0]
	},
	{
		"bufferView":3,
		"type":"SCALAR",
		"componentType":5126,
		"byteOffset":0,
		"count":91,
		"min":[0.0],
		"max":[3.0]
	},
	{
		"bufferView":3,
		"type":"VEC4",
		"componentType":5126,
		"byteOffset":364,
		"count":91,
		"min":[0.0,
		0.0014542205026373268,
		0.0,
		-0.999998927116394],
		"max":[0.0,
		0.04361938685178757,
		0.0,
		0.999998927116394]
	}],
	"buffers":[{
		"uri":"data:application/octet-stream;base64,",
		"byteLength":73584
	},
	{
		"uri":"data:application/octet-stream;base64,",
		"byteLength":3276
	}],
	"bufferViews":[{
		"buffer":0,
		"byteOffset":0,
		"byteLength":14304,
		"target":34963
	},
	{
		"buffer":0,
		"byteOffset":14304,
		"byteLength":59280,
		"target":34962,
		"byteStride":24
	},
	{
		"buffer":1,
		"byteOffset":0,
		"byteLength":1456
	},
	{
		"buffer":1,
		"byteOffset":1456,
		"byteLength":1820
	}],
	"materials":[{
		"pbrMetallicRoughness":{
			"baseColorFactor":[1.0,
			1.0,
			1.0,
			1.0],
			"metallicFactor":1.0,
			"roughnessFactor":1.0
		},
		"emissiveFactor":[1.0,
		1.0,
		1.0],
		"alphaMode":"OPAQUE",
		"doubleSided":true,
		"name":"Mat"
	}],
	"animations":[{
		"samplers":[{
			"input":3,
			"interpolation":"LINEAR",
			"output":4
		},
		{
			"input":5,
			"interpolation":"LINEAR",
			"output":6
		}],
		"channels":[{
			"sampler":0,
			"target":{
				"node":0,
				"path":"translation"
			}
		},
		{
			"sampler":1,
			"target":{
				"node":0,
				"path":"rotation"
			}
		}]
	}]
}