{
	"nodes":[{
		"name":"Extrude.1",
		"translation":[-27.15791893005371,
		0.0,
		0.0],
		"rotation":[-5.514488865543399e-10,
		0.0523359552025795,
		1.0522271942647876e-8,
		-0.9986295104026794],
		"scale":[1.0,
		1.0,
		1.0],
		"mesh":0
	}],
	"scenes":[{
		"nodes":[0]
	}],
	"asset":{
		"version":"2.0",
		"generator":"Created using the official Cinema 4D glTF Exporter 1.000x284978"
	},
	"meshes":[{
		"name":"Extrude.1",
		"primitives":[{
			"attributes":{
				"POSITION":1
			},
			"indices":0,
			"material":0
		}]
	}],
	"accessors":[{
		"max":[2687],
		"bufferView":0,
		"min":[0],
		"type":"SCALAR",
		"componentType":5123,
		"count":16164,
		"byteOffset":0
	},
	{
		"max":[140.58889770507813,
		57.325870513916019,
		0.0],
		"bufferView":1,
		"min":[-72.86016082763672,
		-17.36988639831543,
		-5.0],
		"type":"VEC3",
		"componentType":5126,
		"count":2688,
		"byteOffset":0
	},
	{
		"max":[3.0],
		"bufferView":2,
		"min":[0.0],
		"type":"SCALAR",
		"componentType":5126,
		"count":91,
		"byteOffset":0
	},
	{
		"max":[0.0,
		0.0523359552025795,
		7.44968575716598e-9,
		0.9999984502792358],
		"bufferView":2,
		"min":[-3.899332523538135e-10,
		0.0017450643936172128,
		-7.44968575716598e-9,
		-0.9999984502792358],
		"type":"VEC4",
		"componentType":5126,
		"count":91,
		"byteOffset":364
	}],
	"bufferViews":[{
		"buffer":0,
		"byteOffset":0,
		"byteLength":32328,
		"target":34963
	},
	{
		"buffer":0,
		"byteOffset":32328,
		"byteLength":32256,
		"target":34962
	},
	{
		"buffer":1,
		"byteOffset":0,
		"byteLength":1820
	}],
	"buffers":[{
		"uri":"data:application/octet-stream;base64,",
		"byteLength":64584
	},
	{
		"uri":"data:application/octet-stream;base64,",
		"byteLength":1820
	}],
	"images":[{
		"uri":"data:image/jpeg;base64,"
	}],
	"samplers":[{
		"magFilter":9729,
		"minFilter":9729,
		"wrapS":10497,
		"wrapT":10497
	}],
	"textures":[{
		"sampler":0,
		"source":0
	}],
	"materials":[{
		"pbrMetallicRoughness":{
			"baseColorFactor":[1.0,
			1.0,
			1.0,
			1.0],
			"metallicFactor":0.0,
			"roughnessFactor":0.5
		},
		"emissiveTexture":{
			"index":0
		},
		"emissiveFactor":[1.0,
		1.0,
		1.0],
		"alphaMode":"OPAQUE",
		"doubleSided":false,
		"name":"Extrude"
	}],
	"animations":[{
		"samplers":[{
			"input":2,
			"interpolation":"LINEAR",
			"output":3
		}],
		"channels":[{
			"sampler":0,
			"target":{
				"node":0,
				"path":"rotation"
			}
		}]
	}]
}