{
	"nodes":[{
		"name":"Extrude.1",
		"scale":[1.0,
		1.0,
		1.0],
		"translation":[0.0,
		21.66004180908203,
		0.0],
		"rotation":[-3.1009811385374066e-10,
		0.04162066429853439,
		-7.444124427991028e-9,
		0.9991334676742554],
		"mesh":0
	}],
	"asset":{
		"version":"2.0",
		"generator":"Created using the official Cinema 4D glTF Exporter 1.000x284978"
	},
	"scenes":[{
		"nodes":[0]
	}],
	"meshes":[{
		"name":"Extrude.1",
		"primitives":[{
			"attributes":{
				"POSITION":1
			},
			"indices":0,
			"material":0
		}]
	}],
	"accessors":[{
		"bufferView":0,
		"type":"SCALAR",
		"componentType":5123,
		"count":528,
		"byteOffset":0,
		"min":[0],
		"max":[87]
	},
	{
		"bufferView":1,
		"type":"VEC3",
		"componentType":5126,
		"count":88,
		"byteOffset":0,
		"min":[-20.696157455444337,
		-70.1599349975586,
		0.0],
		"max":[88.18537139892578,
		34.123680114746097,
		5.0]
	},
	{
		"bufferView":2,
		"type":"SCALAR",
		"componentType":5126,
		"count":121,
		"byteOffset":0,
		"min":[0.0],
		"max":[4.0]
	},
	{
		"bufferView":2,
		"type":"VEC3",
		"componentType":5126,
		"count":121,
		"byteOffset":484,
		"min":[0.0,
		2.118821859359741,
		0.0],
		"max":[0.0,
		36.11882019042969,
		0.0]
	},
	{
		"bufferView":3,
		"type":"SCALAR",
		"componentType":5126,
		"count":121,
		"byteOffset":0,
		"min":[0.0],
		"max":[4.0]
	},
	{
		"bufferView":3,
		"type":"VEC4",
		"componentType":5126,
		"count":121,
		"byteOffset":484,
		"min":[-7.373910371200054e-10,
		0.001575796166434884,
		-7.45048556183292e-9,
		-0.9999983310699463],
		"max":[0.0,
		0.10452846437692642,
		7.450481120940822e-9,
		0.9999987483024597]
	}],
	"buffers":[{
		"uri":"data:application/octet-stream;base64,",
		"byteLength":2112
	},
	{
		"uri":"data:application/octet-stream;base64,",
		"byteLength":4356
	}],
	"bufferViews":[{
		"buffer":0,
		"byteOffset":0,
		"byteLength":1056,
		"target":34963
	},
	{
		"buffer":0,
		"byteOffset":1056,
		"byteLength":1056,
		"target":34962
	},
	{
		"buffer":1,
		"byteOffset":0,
		"byteLength":1936
	},
	{
		"buffer":1,
		"byteOffset":1936,
		"byteLength":2420
	}],
	"materials":[{
		"pbrMetallicRoughness":{
			"baseColorFactor":[1.0,
			1.0,
			1.0,
			1.0],
			"metallicFactor":0.0,
			"roughnessFactor":0.5
		},
		"emissiveFactor":[1.0,
		1.0,
		1.0],
		"alphaMode":"OPAQUE",
		"doubleSided":false,
		"name":"Extrude"
	}],
	"animations":[{
		"samplers":[{
			"input":2,
			"interpolation":"LINEAR",
			"output":3
		},
		{
			"input":4,
			"interpolation":"LINEAR",
			"output":5
		}],
		"channels":[{
			"sampler":0,
			"target":{
				"node":0,
				"path":"translation"
			}
		},
		{
			"sampler":1,
			"target":{
				"node":0,
				"path":"rotation"
			}
		}]
	}]
}