{
	"samplers":[{
		"magFilter":9729,
		"minFilter":9729,
		"wrapS":10497,
		"wrapT":10497
	},
	{
		"magFilter":9729,
		"minFilter":9729,
		"wrapS":10497,
		"wrapT":10497
	},
	{
		"magFilter":9729,
		"minFilter":9729,
		"wrapS":10497,
		"wrapT":10497
	},
	{
		"magFilter":9729,
		"minFilter":9729,
		"wrapS":10497,
		"wrapT":10497
	},
	{
		"magFilter":9729,
		"minFilter":9729,
		"wrapS":10497,
		"wrapT":10497
	},
	{
		"magFilter":9729,
		"minFilter":9729,
		"wrapS":10497,
		"wrapT":10497
	}],
	"nodes":[{
		"name":"Null.1",
		"scale":[1.0,
		1.0,
		1.0],
		"translation":[0.0,
		0.0,
		0.0],
		"rotation":[-0.17153745889663697,
		-0.18711388111114503,
		-0.03320354223251343,
		0.9666751623153687],
		"children":[1,
		4]
	},
	{
		"name":"Boole",
		"scale":[1.0,
		1.0,
		1.0],
		"translation":[0.0,
		0.0,
		0.0],
		"rotation":[-0.17472141981124879,
		0.0,
		0.0,
		-0.9846178889274597],
		"children":[2,
		3]
	},
	{
		"name":"Cube",
		"scale":[1.0,
		1.0,
		1.0],
		"translation":[2.7755575615628916e-17,
		0.0,
		-0.4928090274333954],
		"rotation":[0.0,
		0.0,
		0.0,
		-1.0],
		"mesh":0
	},
	{
		"name":"Sphere",
		"scale":[1.0,
		1.0,
		1.0],
		"translation":[-25.046899795532228,
		-0.13319198787212373,
		-1.7763568394002506e-15],
		"rotation":[0.0,
		0.0,
		0.0,
		-1.0],
		"mesh":1
	},
	{
		"name":"Cylinder",
		"scale":[1.0,
		1.0,
		1.0],
		"translation":[0.0,
		0.0,
		0.0],
		"rotation":[0.00010505731916055083,
		-0.16703501343727113,
		0.9858126640319824,
		-0.016515016555786134],
		"children":[5]
	},
	{
		"name":"Cylinder",
		"scale":[1.0,
		1.0,
		1.0],
		"translation":[0.0,
		0.0,
		0.0],
		"rotation":[-3.469446951953614e-18,
		-4.718447854656915e-16,
		1.6370404527291506e-33,
		-1.0],
		"mesh":2
	}],
	"asset":{
		"version":"2.0",
		"generator":"Created using the official Cinema 4D glTF Exporter 1.000x284978"
	},
	"materials":[{
		"pbrMetallicRoughness":{
			"baseColorFactor":[1.0,
			1.0,
			1.0,
			1.0],
			"metallicFactor":0.0,
			"roughnessFactor":0.5
		},
		"normalTexture":{
			"index":0,
			"scale":1.0
		},
		"emissiveTexture":{
			"index":1
		},
		"emissiveFactor":[1.0,
		1.0,
		1.0],
		"alphaMode":"OPAQUE",
		"doubleSided":false,
		"name":"Cube.1"
	},
	{
		"pbrMetallicRoughness":{
			"baseColorFactor":[1.0,
			1.0,
			1.0,
			1.0],
			"metallicFactor":0.0,
			"roughnessFactor":0.5
		},
		"normalTexture":{
			"index":2,
			"scale":1.0
		},
		"emissiveTexture":{
			"index":3
		},
		"emissiveFactor":[1.0,
		1.0,
		1.0],
		"alphaMode":"OPAQUE",
		"doubleSided":false,
		"name":"Sphere.1"
	},
	{
		"pbrMetallicRoughness":{
			"baseColorFactor":[1.0,
			1.0,
			1.0,
			1.0],
			"metallicFactor":0.0,
			"roughnessFactor":0.5
		},
		"normalTexture":{
			"index":4,
			"scale":1.0
		},
		"emissiveTexture":{
			"index":5
		},
		"emissiveFactor":[1.0,
		1.0,
		1.0],
		"alphaMode":"OPAQUE",
		"doubleSided":false,
		"name":"Cylinder.1"
	}],
	"scenes":[{
		"nodes":[0]
	}],
	"images":[{
		"uri":"data:image/jpeg;base64,"
	},
	{
		"uri":"data:image/jpeg;base64,"
	},
	{
		"uri":"data:image/jpeg;base64,"
	},
	{
		"uri":"data:image/jpeg;base64,"
	},
	{
		"uri":"data:image/jpeg;base64,"
	},
	{
		"uri":"data:image/jpeg;base64,"
	}],
	"meshes":[{
		"name":"Cube",
		"primitives":[{
			"attributes":{
				"POSITION":3,
				"TEXCOORD_0":4
			},
			"indices":2,
			"material":0
		}]
	},
	{
		"name":"Sphere",
		"primitives":[{
			"attributes":{
				"POSITION":6,
				"TEXCOORD_0":7
			},
			"indices":5,
			"material":1
		}]
	},
	{
		"name":"Cylinder",
		"primitives":[{
			"attributes":{
				"POSITION":9,
				"TEXCOORD_0":10
			},
			"indices":8,
			"material":2
		}]
	}],
	"buffers":[{
		"uri":"data:application/octet-stream;base64,",
		"byteLength":4220
	},
	{
		"uri":"data:application/octet-stream;base64,",
		"byteLength":21584
	},
	{
		"uri":"data:application/octet-stream;base64,",
		"byteLength":2936
	},
	{
		"uri":"data:application/octet-stream;base64,",
		"byteLength":7740
	}],
	"accessors":[{
		"bufferView":0,
		"type":"SCALAR",
		"componentType":5126,
		"count":211,
		"byteOffset":0,
		"min":[0.0],
		"max":[7.0]
	},
	{
		"bufferView":0,
		"type":"VEC4",
		"componentType":5126,
		"count":211,
		"byteOffset":844,
		"min":[-0.17472130060195924,
		-0.24652864038944245,
		-0.04374675080180168,
		-0.9846140742301941],
		"max":[0.17472073435783387,
		-0.0011660212185233832,
		-0.00020691161626018584,
		0.9846172332763672]
	},
	{
		"bufferView":1,
		"type":"SCALAR",
		"componentType":5123,
		"count":3192,
		"byteOffset":0,
		"min":[0],
		"max":[759]
	},
	{
		"bufferView":2,
		"type":"VEC3",
		"componentType":5126,
		"count":760,
		"byteOffset":0,
		"min":[-29.194015502929689,
		-14.364737510681153,
		-0.06880967319011688],
		"max":[29.194015502929689,
		14.364737510681153,
		0.06880967319011688]
	},
	{
		"bufferView":2,
		"type":"VEC2",
		"componentType":5126,
		"count":760,
		"byteOffset":12,
		"min":[0.00130576197989285,
		0.00130576197989285],
		"max":[0.9961089491844177,
		0.8255372047424316]
	},
	{
		"bufferView":3,
		"type":"SCALAR",
		"componentType":5123,
		"count":228,
		"byteOffset":0,
		"min":[0],
		"max":[123]
	},
	{
		"bufferView":4,
		"type":"VEC3",
		"componentType":5126,
		"count":124,
		"byteOffset":0,
		"min":[-1.7401726245880128,
		-1.7401726245880128,
		-0.5616186857223511],
		"max":[1.7401726245880128,
		1.7401726245880128,
		-0.4239993691444397]
	},
	{
		"bufferView":4,
		"type":"VEC2",
		"componentType":5126,
		"count":124,
		"byteOffset":12,
		"min":[0.001304353354498744,
		0.001304353354498744],
		"max":[0.9961089491844177,
		0.9664793014526367]
	},
	{
		"bufferView":5,
		"type":"SCALAR",
		"componentType":5123,
		"count":1140,
		"byteOffset":0,
		"min":[0],
		"max":[272]
	},
	{
		"bufferView":6,
		"type":"VEC3",
		"componentType":5126,
		"count":273,
		"byteOffset":0,
		"min":[-13.0,
		-12.955598831176758,
		-0.047279611229896548],
		"max":[4.777488708496094,
		12.955598831176758,
		7.986649036407471]
	},
	{
		"bufferView":6,
		"type":"VEC2",
		"componentType":5126,
		"count":273,
		"byteOffset":12,
		"min":[0.0013024784857407213,
		0.0013024783693253995],
		"max":[0.6003423929214478,
		0.996108889579773]
	}],
	"bufferViews":[{
		"buffer":0,
		"byteOffset":0,
		"byteLength":4220
	},
	{
		"buffer":1,
		"byteOffset":0,
		"byteLength":6384,
		"target":34963
	},
	{
		"buffer":1,
		"byteOffset":6384,
		"byteLength":15200,
		"target":34962,
		"byteStride":20
	},
	{
		"buffer":2,
		"byteOffset":0,
		"byteLength":456,
		"target":34963
	},
	{
		"buffer":2,
		"byteOffset":456,
		"byteLength":2480,
		"target":34962,
		"byteStride":20
	},
	{
		"buffer":3,
		"byteOffset":0,
		"byteLength":2280,
		"target":34963
	},
	{
		"buffer":3,
		"byteOffset":2280,
		"byteLength":5460,
		"target":34962,
		"byteStride":20
	}],
	"textures":[{
		"sampler":0,
		"source":0
	},
	{
		"sampler":1,
		"source":1
	},
	{
		"sampler":2,
		"source":2
	},
	{
		"sampler":3,
		"source":3
	},
	{
		"sampler":4,
		"source":4
	},
	{
		"sampler":5,
		"source":5
	}],
	"animations":[{
		"samplers":[{
			"input":0,
			"interpolation":"LINEAR",
			"output":1
		}],
		"channels":[{
			"sampler":0,
			"target":{
				"node":0,
				"path":"rotation"
			}
		}]
	}]
}