{
	"nodes":[{
		"name":"Plane",
		"scale":[1.0,
		1.0,
		1.0],
		"translation":[0.0,
		0.0,
		0.0],
		"rotation":[0.0,
		-0.7071067690849304,
		0.0,
		-0.7071067690849304],
		"mesh":0
	}],
	"asset":{
		"version":"2.0",
		"generator":"Created using the official Cinema 4D glTF Exporter 1.000x284978"
	},
	"materials":[{
		"pbrMetallicRoughness":{
			"baseColorFactor":[1.0,
			1.0,
			1.0,
			1.0],
			"metallicFactor":1.0,
			"roughnessFactor":1.0
		},
		"emissiveFactor":[1.0,
		0.0,
		0.9666666666666668],
		"alphaMode":"OPAQUE",
		"doubleSided":false,
		"name":"Mat"
	}],
	"scenes":[{
		"nodes":[0]
	}],
	"meshes":[{
		"name":"Plane",
		"primitives":[{
			"attributes":{
				"POSITION":1,
				"TEXCOORD_0":2
			},
			"indices":0,
			"material":0
		}]
	}],
	"buffers":[{
		"uri":"data:application/octet-stream;base64,",
		"byteLength":917520
	}],
	"accessors":[{
		"bufferView":0,
		"type":"SCALAR",
		"componentType":5123,
		"count":107280,
		"byteOffset":0,
		"min":[0],
		"max":[35147]
	},
	{
		"bufferView":1,
		"type":"VEC3",
		"componentType":5126,
		"count":35148,
		"byteOffset":0,
		"min":[-598.8694458007813,
		-13.575695037841797,
		-220.8916778564453],
		"max":[598.8695068359375,
		65.1734390258789,
		226.0686798095703]
	},
	{
		"bufferView":1,
		"type":"VEC2",
		"componentType":5126,
		"count":35148,
		"byteOffset":12,
		"min":[0.0,
		0.0],
		"max":[1.0,
		1.0]
	}],
	"bufferViews":[{
		"buffer":0,
		"byteOffset":0,
		"byteLength":214560,
		"target":34963
	},
	{
		"buffer":0,
		"byteOffset":214560,
		"byteLength":702960,
		"target":34962,
		"byteStride":20
	}]
}