{
	"nodes":[{
		"name":"Cube",
		"scale":[1.0,
		1.0,
		1.0],
		"translation":[54.31578063964844,
		0.0,
		-0.1454763263463974],
		"rotation":[2.356737240916118e-7,
		-0.0010855267755687237,
		-0.0002171052765334025,
		0.9999994039535523],
		"mesh":0
	}],
	"asset":{
		"version":"2.0",
		"generator":"Created using the official Cinema 4D glTF Exporter 1.000x284978"
	},
	"textures":[{
		"sampler":0,
		"source":0
	},
	{
		"sampler":1,
		"source":1
	}],
	"scenes":[{
		"nodes":[0]
	}],
	"samplers":[{
		"magFilter":9729,
		"minFilter":9729,
		"wrapS":10497,
		"wrapT":10497
	},
	{
		"magFilter":9729,
		"minFilter":9729,
		"wrapS":10497,
		"wrapT":10497
	}],
	"meshes":[{
		"name":"Cube",
		"primitives":[{
			"attributes":{
				"POSITION":1,
				"TEXCOORD_0":2
			},
			"indices":0,
			"material":0
		}]
	}],
	"accessors":[{
		"bufferView":0,
		"type":"SCALAR",
		"componentType":5123,
		"count":18660,
		"min":[0],
		"byteOffset":0,
		"max":[4039]
	},
	{
		"bufferView":1,
		"type":"VEC3",
		"componentType":5126,
		"count":4040,
		"min":[-174.37222290039063,
		-95.49870300292969,
		-134.2056427001953],
		"byteOffset":0,
		"max":[65.74066162109375,
		107.7865219116211,
		134.49659729003907]
	},
	{
		"bufferView":1,
		"type":"VEC2",
		"componentType":5126,
		"count":4040,
		"min":[0.0006532969418913126,
		0.0006532969418913126],
		"byteOffset":12,
		"max":[0.9980506896972656,
		0.839337944984436]
	},
	{
		"bufferView":2,
		"type":"SCALAR",
		"componentType":5126,
		"count":131,
		"min":[0.0],
		"byteOffset":0,
		"max":[4.333333492279053]
	},
	{
		"bufferView":2,
		"type":"VEC4",
		"componentType":5126,
		"count":131,
		"min":[0.0,
		-0.04361772537231445,
		-0.008718229830265046,
		0.9990102052688599],
		"byteOffset":524,
		"max":[0.00038064614636823535,
		-1.2246468525851679e-16,
		0.0,
		1.0]
	}],
	"buffers":[{
		"uri":"data:application/octet-stream;base64,",
		"byteLength":118120
	},
	{
		"uri":"data:application/octet-stream;base64,",
		"byteLength":2620
	}],
	"bufferViews":[{
		"buffer":0,
		"byteOffset":0,
		"byteLength":37320,
		"target":34963
	},
	{
		"buffer":0,
		"byteOffset":37320,
		"byteLength":80800,
		"target":34962,
		"byteStride":20
	},
	{
		"buffer":1,
		"byteOffset":0,
		"byteLength":2620
	}],
	"images":[{
		"uri":"data:image/jpeg;base64,"
	},
	{
		"uri":"data:image/jpeg;base64,"
	}],
	"materials":[{
		"alphaMode":"OPAQUE",
		"pbrMetallicRoughness":{
			"baseColorFactor":[1.0,
			1.0,
			1.0,
			1.0],
			"metallicFactor":0.0,
			"roughnessFactor":0.5
		},
		"normalTexture":{
			"index":0,
			"scale":1.0
		},
		"emissiveTexture":{
			"index":1
		},
		"emissiveFactor":[1.0,
		1.0,
		1.0],
		"doubleSided":false,
		"name":"Cube"
	}],
	"animations":[{
		"samplers":[{
			"input":3,
			"interpolation":"LINEAR",
			"output":4
		}],
		"channels":[{
			"sampler":0,
			"target":{
				"node":0,
				"path":"rotation"
			}
		}]
	}]
}