{
	"nodes":[{
		"name":"Null",
		"scale":[1.0,
		1.0,
		1.0],
		"translation":[0.0,
		0.0,
		0.0],
		"rotation":[0.0,
		0.7071067690849304,
		0.0,
		-0.7071067690849304],
		"children":[1,
		3,
		5]
	},
	{
		"name":"Atom Array.2",
		"scale":[1.0,
		1.0,
		1.0],
		"translation":[0.0,
		0.0,
		-159.87429809570313],
		"rotation":[0.0,
		0.0,
		0.0,
		-1.0],
		"children":[2]
	},
	{
		"name":"Plane",
		"mesh":0
	},
	{
		"name":"Atom Array.1",
		"scale":[1.0,
		1.0,
		1.0],
		"translation":[0.0,
		0.0,
		159.83815002441407],
		"rotation":[0.0,
		0.0,
		0.0,
		-1.0],
		"children":[4]
	},
	{
		"name":"Plane",
		"mesh":1
	},
	{
		"name":"Atom Array",
		"children":[6]
	},
	{
		"name":"Plane",
		"mesh":2
	}],
	"asset":{
		"version":"2.0",
		"generator":"Created using the official Cinema 4D glTF Exporter 1.000x284978"
	},
	"scenes":[{
		"nodes":[0]
	}],
	"meshes":[{
		"name":"Plane",
		"primitives":[{
			"attributes":{
				"POSITION":1
			},
			"indices":0,
			"material":0
		}]
	},
	{
		"name":"Plane",
		"primitives":[{
			"attributes":{
				"POSITION":3
			},
			"indices":2,
			"material":0
		}]
	},
	{
		"name":"Plane",
		"primitives":[{
			"attributes":{
				"POSITION":5
			},
			"indices":4,
			"material":0
		}]
	}],
	"accessors":[{
		"bufferView":0,
		"type":"SCALAR",
		"componentType":5123,
		"count":94032,
		"byteOffset":0,
		"min":[0],
		"max":[22543]
	},
	{
		"bufferView":1,
		"type":"VEC3",
		"componentType":5126,
		"count":22544,
		"byteOffset":0,
		"min":[-751.0,
		-9.395363807678223,
		-79.90198516845703],
		"max":[751.0000610351563,
		76.83257293701172,
		83.34278869628906]
	},
	{
		"bufferView":2,
		"type":"SCALAR",
		"componentType":5123,
		"count":94032,
		"byteOffset":0,
		"min":[0],
		"max":[22543]
	},
	{
		"bufferView":3,
		"type":"VEC3",
		"componentType":5126,
		"count":22544,
		"byteOffset":0,
		"min":[-751.0,
		-9.527421951293946,
		-84.42659759521485],
		"max":[751.0000610351563,
		85.70358276367188,
		79.90199279785156]
	},
	{
		"bufferView":4,
		"type":"SCALAR",
		"componentType":5123,
		"count":94032,
		"byteOffset":0,
		"min":[0],
		"max":[22543]
	},
	{
		"bufferView":5,
		"type":"VEC3",
		"componentType":5126,
		"count":22544,
		"byteOffset":0,
		"min":[-751.0,
		-18.39569664001465,
		-79.90198516845703],
		"max":[751.0000610351563,
		8.442788124084473,
		79.90199279785156]
	}],
	"bufferViews":[{
		"buffer":0,
		"byteOffset":0,
		"byteLength":188064,
		"target":34963
	},
	{
		"buffer":0,
		"byteOffset":188064,
		"byteLength":270528,
		"target":34962
	},
	{
		"buffer":1,
		"byteOffset":0,
		"byteLength":188064,
		"target":34963
	},
	{
		"buffer":1,
		"byteOffset":188064,
		"byteLength":270528,
		"target":34962
	},
	{
		"buffer":2,
		"byteOffset":0,
		"byteLength":188064,
		"target":34963
	},
	{
		"buffer":2,
		"byteOffset":188064,
		"byteLength":270528,
		"target":34962
	}],
	"buffers":[{
		"uri":"data:application/octet-stream;base64,",
		"byteLength":458592
	},
	{
		"uri":"data:application/octet-stream;base64,",
		"byteLength":458592
	},
	{
		"uri":"data:application/octet-stream;base64,",
		"byteLength":458592
	}],
	"materials":[{
		"pbrMetallicRoughness":{
			"baseColorFactor":[1.0,
			1.0,
			1.0,
			1.0],
			"metallicFactor":1.0,
			"roughnessFactor":1.0
		},
		"name":"Mat.1",
		"emissiveFactor":[1.0,
		0.0,
		0.9666666666666668],
		"alphaMode":"OPAQUE",
		"doubleSided":false
	}]
}